<svg xmlns="http://www.w3.org/2000/svg" id="Layer_1" data-name="Layer 1" viewBox="0 0 661 661" height="30" width="30"><defs><style>.cls-1{fill:#5468ff;}.cls-2{fill:#fff;}.cls-3{fill:none;}</style></defs><title>algolia_logo</title><path class="cls-1" d="M149.58,69H600.42A80.64,80.64,0,0,1,681,149.58V600.45A80.61,80.61,0,0,1,600.42,681H149.58A80.62,80.62,0,0,1,69,600.45V149.38A80.46,80.46,0,0,1,149.58,69" transform="translate(-41 -44.5)"/><path class="cls-2" d="M438.77,205.62v-21a26.56,26.56,0,0,0-26.57-26.55H350.26a26.57,26.57,0,0,0-26.57,26.55v21.54a3.68,3.68,0,0,0,4.64,3.52,194,194,0,0,1,53.91-7.6,196.69,196.69,0,0,1,52.07,7,3.58,3.58,0,0,0,4.46-3.52M269,233.09,258.44,222.5a26.55,26.55,0,0,0-37.55,0h0l-12.64,12.63a26.45,26.45,0,0,0-.12,37.4l.12.11,10.4,10.41a3.77,3.77,0,0,0,5.58-.39A203.2,203.2,0,0,1,244.5,258.9a190.38,190.38,0,0,1,24-20.4,3.56,3.56,0,0,0,.56-5.41m113,66.63V390.5a3.56,3.56,0,0,0,5.2,3.17L468,351.9a3.67,3.67,0,0,0,1.48-5,100.41,100.41,0,0,0-83.67-50.69,3.67,3.67,0,0,0-3.72,3.51m0,218.69c-67.3,0-122-54.6-122-121.79s54.67-121.76,122-121.76,122,54.57,122,121.76a121.84,121.84,0,0,1-122,121.79m0-294.78c-95.57,0-173.09,77.42-173.09,173s77.52,172.84,173.09,172.84,173.1-77.42,173.1-173-77.34-172.82-173.1-172.82" transform="translate(-41 -44.5)"/><rect class="cls-3" width="661" height="661"/></svg>
